#!OML:ASF Y:\EmotionMaleHayes\Project 1\Capture day 1\Session 1\Male1.ASF
:FULLY-SPECIFIED
:DEGREES
1009
root 8.73072 17.0155 -0.14404 395.744 80.938 394.917
lowerback 10.1664 2.3141 -6.5034
upperback 13.5361 3.79019 -1.4457
thorax 8.5439 1.74568 2.018
lowerneck -12.2701 -9.40711 -5.57305
upperneck 27.7382 -13.5684 7.62623
head 12.0859 -5.55889 1.85118
rclavicle -2.57426e-014 1.77912e-014
rhumerus 0.142918 39.1004 -87.9782
rradius 136.342
rwrist -10.0461
rhand -35.5726 -13.3744
rfingers 7.12502
rthumb -8.69732 -43.1752
lclavicle -2.57426e-014 1.77912e-014
lhumerus -16.3807 -83.7878 102.891
lradius 96.251
lwrist 4.06304
lhand -31.0971 -72.6152
lfingers 7.12502
lthumb -4.37688 -42.6804
rfemur -15.0008 7.62952 12.0083
rtibia 28.1949
rfoot -17.9655 -6.19255
rtoes -0.691593
lfemur -6.42181 4.68529 -28.4721
ltibia 16.7521
lfoot -13.77 9.9892
ltoes -2.94182
1010
root 8.74424 17.0101 -0.157968 395.393 80.7112 394.779
lowerback 10.0141 2.17318 -6.65082
upperback 13.6926 3.63368 -1.46771
thorax 8.82273 1.64823 2.0942
lowerneck -12.1913 -9.31878 -5.64876
upperneck 27.4487 -13.5002 7.91212
head 11.9806 -5.51945 1.98149
rclavicle -1.02871e-014 1.49585e-014
rhumerus 0.832846 39.0613 -87.7945
rradius 135.863
rwrist -9.67177
rhand -35.4446 -13.6153
rfingers 7.12502
rthumb -8.57382 -43.4212
lclavicle -1.02871e-014 1.49585e-014
lhumerus -13.1587 -83.8282 99.6532
lradius 96.2225
lwrist 3.9909
lhand -30.2101 -72.3751
lfingers 7.12502
lthumb -3.52035 -42.4244
rfemur -14.8156 7.51796 11.9057
rtibia 28.3064
rfoot -17.9323 -6.14833
rtoes -3.53741
lfemur -6.23949 4.72226 -28.6421
ltibia 16.9974
lfoot -14.1444 10.035
ltoes -2.61693
1011
root 8.7524 17.0042 -0.169387 395.302 80.4385 394.879
lowerback 9.90784 2.06484 -6.88947
upperback 13.7965 3.50553 -1.48699
thorax 9.01135 1.55786 2.2175
lowerneck -11.9499 -9.27898 -5.70597
upperneck 27.0465 -13.4926 8.1782
head 11.8005 -5.51785 2.09798
rclavicle -1.5207e-014 -2.40032e-014
rhumerus 1.76776 39.167 -87.5943
rradius 135.202
rwrist -9.43698
rhand -35.1117 -14.0154
rfingers 7.12502
rthumb -8.25258 -43.8342
lclavicle -1.5207e-014 -2.40032e-014
lhumerus -9.87022 -83.6873 96.4238
lradius 96.3438
lwrist 4.69913
lhand -29.104 -72.0741
lfingers 7.12502
lthumb -2.45214 -42.1085
rfemur -14.7235 7.43551 11.7369
rtibia 28.459
rfoot -17.8503 -6.15608
rtoes -5.67137
lfemur -6.16643 4.80131 -28.8541
ltibia 17.3158
lfoot -14.4436 10.1314
ltoes -2.54639
1012
root 8.7594 16.9972 -0.178976 394.238 80.1518 394.009
lowerback 9.82154 2.00783 -6.94114
upperback 13.8818 3.44855 -1.52611
thorax 9.16702 1.52199 2.21233
lowerneck -12.3812 -9.28495 -5.47532
upperneck 27.475 -13.504 7.90861
head 12.0159 -5.50035 1.94286
rclavicle 1.44864e-014 -1.14798e-014
rhumerus 2.10604 39.2112 -87.45
rradius 135.284
rwrist -9.78566
rhand -34.2818 -14.2166
rfingers 7.12502
rthumb -7.45159 -44.0653
lclavicle 1.44864e-014 -1.14798e-014
lhumerus -8.15335 -83.6569 94.6982
lradius 96.4853
lwrist 4.95266
lhand -29.226 -72.0243
lfingers 7.12502
lthumb -2.56997 -42.06
rfemur -14.6026 7.4409 11.7118
rtibia 28.4972
rfoot -17.6628 -6.05702
rtoes -6.36538
lfemur -6.06392 5.03025 -28.8476
ltibia 17.578
lfoot -14.6427 10.2124
ltoes -2.47775
1013
root 8.77216 16.9889 -0.190163 392.4 79.9166 392.386
lowerback 9.63113 1.93934 -6.76777
upperback 14.0272 3.40034 -1.55858
thorax 9.45636 1.50735 2.09632
lowerneck -12.5433 -9.20226 -5.25075
upperneck 27.5149 -13.4243 7.83422
head 12.0336 -5.44563 1.88532
rclavicle 2.88735e-014 8.4732e-015
rhumerus 2.52261 38.8834 -87.3873
rradius 135.039
rwrist -10.3876
rhand -34.2711 -13.7775
rfingers 7.12502
rthumb -7.44129 -43.6266
lclavicle 2.88735e-014 8.4732e-015
lhumerus -6.51784 -83.8278 93.0376
lradius 96.465
lwrist 4.80554
lhand -29.8269 -72.1641
lfingers 7.12502
lthumb -3.15026 -42.2076
rfemur -14.4369 7.37402 11.8424
rtibia 28.5995
rfoot -17.5698 -5.73447
rtoes -6.41778
lfemur -5.91325 5.18559 -28.6885
ltibia 17.8211
lfoot -14.8452 10.3759
ltoes -2.08122
1014
root 8.79766 16.9778 -0.208658 393.26 79.4814 393.585
lowerback 9.57172 1.86466 -7.07314
upperback 14.0999 3.31841 -1.69011
thorax 9.58702 1.4431 2.1301
lowerneck -12.6338 -9.1278 -4.97654
upperneck 27.6389 -13.3236 7.59285
head 12.0499 -5.39442 1.76554
rclavicle 6.8208e-015 2.05742e-014
rhumerus 2.88535 38.9817 -87.4108
rradius 134.632
rwrist -10.0239
rhand -34.2802 -14.4259
rfingers 7.12502
rthumb -7.45 -44.2747
lclavicle 6.8208e-015 2.05742e-014
lhumerus -6.80041 -83.9664 93.339
lradius 96.2579
lwrist 4.49526
lhand -30.2027 -72.1691
lfingers 7.12502
lthumb -3.51325 -42.2183
rfemur -14.0703 6.86398 11.2701
rtibia 28.6844
rfoot -17.5677 -5.03898
rtoes -6.20586
lfemur -5.57902 5.23822 -29.2866
ltibia 17.9799
lfoot -15.0081 10.5553
ltoes -2.1794
1015
root 8.83139 16.9645 -0.23147 396.719 78.7031 397.513
lowerback 9.99772 1.84633 -8.11751
upperback 13.8576 3.20014 -1.90339
thorax 9.07092 1.31766 2.45462
lowerneck -12.5604 -9.09591 -4.98365
upperneck 28.1534 -13.2339 7.36
head 12.213 -5.35947 1.70103
rclavicle 1.3418e-015 -4.42296e-015
rhumerus 0.606902 39.3393 -88.0345
rradius 136.128
rwrist -9.57391
rhand -34.0674 -14.6814
rfingers 7.12502
rthumb -7.24458 -44.5374
lclavicle 1.3418e-015 -4.42296e-015
lhumerus -12.6609 -83.7463 99.2654
lradius 96.4408
lwrist 4.81199
lhand -29.4806 -71.972
lfingers 7.12502
lthumb -2.81585 -42.0108
rfemur -13.5279 6.12804 9.88078
rtibia 28.6212
rfoot -17.5409 -4.20304
rtoes -6.28246
lfemur -4.97188 5.35943 -30.7168
ltibia 17.8956
lfoot -15.0893 10.6593
ltoes -2.67829
1016
root 8.85412 16.9528 -0.245605 397.49 78.227 398.623
lowerback 9.95461 1.79042 -8.51222
upperback 13.9183 3.13783 -2.03927
thorax 9.17973 1.25596 2.53091
lowerneck -12.8654 -9.08252 -5.03558
upperneck 28.5438 -13.2419 7.41164
head 12.4428 -5.3347 1.71493
rclavicle -4.62174e-015 -3.36692e-014
rhumerus 0.577827 39.1485 -88.142
rradius 136.107
rwrist -9.62491
rhand -34.0154 -14.2106
rfingers 7.12502
rthumb -7.1944 -44.0683
lclavicle -4.62174e-015 -3.36692e-014
lhumerus -13.0241 -83.701 99.5828
lradius 96.4938
lwrist 4.41934
lhand -29.557 -71.7528
lfingers 7.12502
lthumb -2.88967 -41.7926
rfemur -13.2173 5.89226 9.28754
rtibia 28.6243
rfoot -17.5475 -3.8221
rtoes -6.82351
lfemur -4.58005 5.55455 -31.3194
ltibia 17.9207
lfoot -15.2268 10.7526
ltoes -2.83762
1017
root 8.86899 16.944 -0.251231 395.398 78.1745 396.753
lowerback 10.0017 1.70794 -8.28745
upperback 13.8777 3.0117 -1.97138
thorax 9.11427 1.20893 2.4808
lowerneck -12.9881 -9.06332 -4.97234
upperneck 28.8272 -13.2193 7.31226
head 12.5679 -5.31371 1.66715
rclavicle -8.1626e-015 -1.95492e-014
rhumerus 0.342621 38.8793 -88.2815
rradius 136.086
rwrist -10.3714
rhand -34.1504 -13.0174
rfingers 7.12502
rthumb -7.32472 -42.8706
lclavicle -8.1626e-015 -1.95492e-014
lhumerus -14.3424 -83.562 100.819
lradius 96.5022
lwrist 3.97369
lhand -32.0485 -72.534
lfingers 7.12502
lthumb -5.2956 -42.6202
rfemur -13.0711 6.03332 9.671
rtibia 28.783
rfoot -17.6237 -3.71642
rtoes -7.09292
lfemur -4.4131 5.7968 -30.9174
ltibia 18.1923
lfoot -15.4972 10.8093
ltoes -2.60887
1018
root 8.88558 16.9368 -0.256166 393.039 78.1383 394.663
lowerback 10.1026 1.65432 -7.99903
upperback 13.8502 2.92164 -1.87054
thorax 9.02857 1.18497 2.42813
lowerneck -12.7782 -9.08419 -5.12465
upperneck 28.7622 -13.2747 7.52069
head 12.5332 -5.33777 1.7696
rclavicle -3.60957e-015 2.33871e-014
rhumerus -0.0112185 38.9388 -88.2835
rradius 136.408
rwrist -10.3747
rhand -34.18 -13.8282
rfingers 7.12502
rthumb -7.35329 -43.6804
lclavicle -3.60957e-015 2.33871e-014
lhumerus -14.8966 -83.6797 101.364
lradius 96.544
lwrist 3.8212
lhand -30.1933 -71.4838
lfingers 7.12502
lthumb -3.50409 -41.5328
rfemur -12.8212 6.10005 10.1255
rtibia 28.929
rfoot -17.7427 -3.49797
rtoes -7.0752
lfemur -4.16917 6.01912 -30.4492
ltibia 18.4846
lfoot -15.7987 10.8473
ltoes -2.32368
1019
root 8.89757 16.93 -0.260924 390.696 78.0312 392.534
lowerback 10.1104 1.60532 -7.78971
upperback 13.8666 2.8495 -1.74738
thorax 9.04402 1.15706 2.44666
lowerneck -12.5833 -9.08173 -5.44343
upperneck 28.594 -13.3155 7.94023
head 12.491 -5.35178 1.97876
rclavicle 6.97493e-016 3.50109e-014
rhumerus -0.165675 38.961 -88.2438
rradius 136.476
rwrist -10.1585
rhand -34.1441 -13.649
rfingers 7.12502
rthumb -7.31866 -43.5024
lclavicle 6.97493e-016 3.50109e-014
lhumerus -14.0672 -83.8073 100.615
lradius 96.5855
lwrist 3.80491
lhand -28.1442 -70.3212
lfingers 7.12502
lthumb -1.52518 -40.3469
rfemur -12.6602 6.24021 10.5559
rtibia 29.0905
rfoot -17.9051 -3.3357
rtoes -6.98179
lfemur -4.00506 6.21479 -30.0039
ltibia 18.8044
lfoot -16.0814 10.9385
ltoes -1.95715
1020
root 8.90905 16.9237 -0.267528 389.193 77.8229 391.154
lowerback 10.0252 1.54653 -7.71468
upperback 13.8592 2.77027 -1.69893
thorax 9.08845 1.11624 2.46215
lowerneck -12.6491 -9.06785 -5.488
upperneck 28.6541 -13.3083 7.98807
head 12.5364 -5.34379 2.00239
rclavicle 1.73222e-014 1.18028e-015
rhumerus 0.00350388 38.7526 -88.3329
rradius 136.339
rwrist -10.8641
rhand -33.9697 -12.7415
rfingers 7.12502
rthumb -7.1503 -42.6007
lclavicle 1.73222e-014 1.18028e-015
lhumerus -13.611 -83.7457 100.207
lradius 96.6193
lwrist 3.81693
lhand -30.747 -72.0859
lfingers 7.12502
lthumb -4.03883 -42.1444
rfemur -12.6501 6.36918 10.7448
rtibia 29.3115
rfoot -18.0721 -3.1834
rtoes -6.89291
lfemur -3.96381 6.35143 -29.8045
ltibia 19.158
lfoot -16.346 11.0612
ltoes -1.4535
1021
root 8.92738 16.9168 -0.277664 387.882 77.619 389.995
lowerback 9.86201 1.46954 -7.56856
upperback 13.8654 2.68294 -1.70647
thorax 9.19704 1.07967 2.38149
lowerneck -12.6495 -9.01333 -5.28474
upperneck 28.7005 -13.2221 7.7726
head 12.5122 -5.30993 1.9033
rclavicle -1.11816e-014 -1.15047e-014
rhumerus -0.45067 38.7799 -88.6615
rradius 136.681
rwrist -10.9746
rhand -33.7183 -12.4557
rfingers 7.12502
rthumb -6.90768 -42.323
lclavicle -1.11816e-014 -1.15047e-014
lhumerus -14.0828 -83.6726 100.637
lradius 96.6641
lwrist 3.82483
lhand -30.1036 -71.5705
lfingers 7.12502
lthumb -3.41751 -41.6182
rfemur -12.6086 6.40823 10.8908
rtibia 29.5167
rfoot -18.1632 -3.04561
rtoes -7.5587
lfemur -3.84397 6.39814 -29.6964
ltibia 19.4464
lfoot -16.6579 11.2412
ltoes -1.04646
1022
root 8.94481 16.9097 -0.286894 385.232 77.3815 387.529
lowerback 9.72145 1.42968 -7.1986
upperback 13.8762 2.64326 -1.65686
thorax 9.29115 1.08406 2.23617
lowerneck -12.3296 -8.95615 -5.21298
upperneck 28.5074 -13.1569 7.7949
head 12.3581 -5.29012 1.92367
rclavicle -1.37161e-014 -6.21202e-015
rhumerus -0.502883 38.671 -88.7685
rradius 136.68
rwrist -10.867
rhand -33.4815 -12.8224
rfingers 7.12502
rthumb -6.67902 -42.6971
lclavicle -1.37161e-014 -6.21202e-015
lhumerus -15.2225 -83.5608 101.692
lradius 96.7708
lwrist 3.80527
lhand -29.9322 -71.2309
lfingers 7.12502
lthumb -3.25195 -41.276
rfemur -12.5782 6.72623 11.4052
rtibia 29.8109
rfoot -18.2454 -3.05335
rtoes -8.61457
lfemur -3.62421 6.56739 -29.2222
ltibia 19.6333
lfoot -16.9724 11.5227
ltoes -0.77676
1023
root 8.97145 16.899 -0.298169 385.645 76.7483 388.334
lowerback 9.67455 1.45232 -7.60552
upperback 13.9045 2.67946 -1.81924
thorax 9.35544 1.07186 2.28755
lowerneck -12.1872 -8.98339 -5.21443
upperneck 28.5178 -13.2343 7.90906
head 12.3496 -5.31477 1.96036
rclavicle -1.63997e-014 2.78795e-014
rhumerus -0.72285 38.5693 -88.9791
rradius 136.713
rwrist -11.0772
rhand -33.6534 -12.8887
rfingers 7.12502
rthumb -6.84501 -42.758
lclavicle -1.63997e-014 2.78795e-014
lhumerus -15.8723 -83.6028 102.266
lradius 96.8267
lwrist 3.61528
lhand -29.8957 -70.8253
lfingers 7.12502
lthumb -3.21673 -40.8698
rfemur -12.2674 6.92968 10.9038
rtibia 29.9618
rfoot -18.3976 -2.7227
rtoes -8.90915
lfemur -3.1667 6.8679 -29.7377
ltibia 19.6315
lfoot -17.1687 11.82
ltoes -1.08547
